<?xml version="1.0" ?><svg data-name="Layer 2" id="Layer_2" viewBox="0 0 2000 2000" xmlns="http://www.w3.org/2000/svg"><defs><style>.cls-1{fill:#f4c23f;}.cls-2{fill:#f4a93f;}.cls-3{fill:#de3226;}.cls-4{fill:#b11a31;}.cls-5{fill:#f8881b;}.cls-6{fill:#f08000;}.cls-7{fill:#cf6b00;}.cls-8{fill:#fad564;}.cls-9{fill:#f44533;}</style></defs><title/><path class="cls-1" d="M1671.9,889.6c0,67.6-98.1,119-117.9,180-20.6,63.3,27.9,162.3-10.4,215s-148.2,37.4-201.3,76.2-71.4,147.4-134.6,167.9c-61.1,19.9-140.1-56.8-207.7-56.8s-146.6,76.7-207.7,56.8c-63.2-20.5-81.9-129.6-134.6-167.9s-162.6-23.1-201.3-76.2,10.2-151.7-10.4-215c-19.8-61-117.9-112.4-117.9-180s98.1-119,117.9-180c20.6-63.3-27.9-162.3,10.4-215s148.2-37.5,201.3-76.2,71.4-147.4,134.6-168c61.1-19.8,140.1,56.9,207.7,56.9s146.6-76.7,207.7-56.9c63.2,20.6,81.9,129.7,134.6,168s162.6,23,201.3,76.2-10.2,151.7,10.4,215C1573.8,770.6,1671.9,821.9,1671.9,889.6Z"/><path class="cls-2" d="M984.4,1370.9a437.8,437.8,0,1,1,171-34.5A437.3,437.3,0,0,1,984.4,1370.9Z"/><path class="cls-2" d="M1262.9,1027.1a36.5,36.5,0,0,0-48.3-18.3L944.8,1130.1a36.4,36.4,0,0,0-10.2,6.8,37.3,37.3,0,0,0-10.1-6.8L654.7,1008.8a36.6,36.6,0,0,0-48.4,18.3L481,1305.9c48.9,28.1,132.4,22.6,176.7,54.9,51,37,70.1,140.4,128.6,165.7l148.3-329.8,131.6,292.5c49.3,21.3,99.6,53.1,141.5,39.5,63.2-20.5,81.9-129.6,134.6-167.9,16-11.7,37.2-18.5,60.1-23.6Z"/><path class="cls-3" d="M719.3,1678.9l-63.9-113.1a36.3,36.3,0,0,0-39.4-17.7l-127,27.2c-29.3,6.3-53.3-23.4-41-50.7l223.7-497.5a36.5,36.5,0,0,1,48.3-18.3l269.9,121.3a36.5,36.5,0,0,1,18.3,48.3L784.5,1675.9C772.2,1703.2,734.1,1705,719.3,1678.9Z"/><path class="cls-4" d="M749.8,1118.4a75.6,75.6,0,0,0-36.9-100.3l-21.4-9.9a36.5,36.5,0,0,0-19.8,18.9L448,1524.6c-12.3,27.3,11.7,57,41,50.7l55-11.8Z"/><path class="cls-3" d="M1280.7,1678.9l63.9-113.1a36.3,36.3,0,0,1,39.4-17.7l127,27.2c29.3,6.3,53.3-23.4,41-50.7l-223.7-497.5a36.5,36.5,0,0,0-48.3-18.3l-269.9,121.3a36.5,36.5,0,0,0-18.3,48.3l223.7,497.5C1227.8,1703.2,1265.9,1705,1280.7,1678.9Z"/><path class="cls-4" d="M1080.3,1156.4l-82,36.6,217.2,482.9c12.3,27.3,50.4,29.1,65.2,3l18.1-32.1Z"/><path class="cls-4" d="M989.9,1130.1,720,1008.8a36.5,36.5,0,0,0-48.3,18.3l-61.1,135.8a439.6,439.6,0,0,0,312.9,203.9l84.7-188.4A36.5,36.5,0,0,0,989.9,1130.1Z"/><path class="cls-4" d="M1375.5,1132.1l-47.2-105a36.5,36.5,0,0,0-48.3-18.3l-269.9,121.3a36.5,36.5,0,0,0-18.3,48.3l82.4,183.3a431.5,431.5,0,0,0,81.2-25.3,441.8,441.8,0,0,0,220.1-204.3Z"/><circle class="cls-5" cx="1000" cy="878.7" r="411.3"/><circle class="cls-6" cx="1000" cy="878.7" r="363.4"/><circle class="cls-1" cx="1000" cy="878.7" r="322.5"/><path class="cls-2" d="M995.8,556.3C819.7,558.5,677.5,702,677.5,878.7s142.2,320.2,318.3,322.5Z"/><path class="cls-5" d="M1008,1170.8a47.5,47.5,0,0,1-47.5-47.5v-57.4h-88a47.5,47.5,0,1,1,0-94.9h198.9a24.6,24.6,0,0,0,0-49.1h-127a119.4,119.4,0,0,1,0-238.8h16.1V645.2a47.5,47.5,0,0,1,95,0v37.9h88a47.5,47.5,0,1,1,0,94.9H944.4a24.5,24.5,0,0,0,0,49h127a119.5,119.5,0,0,1,119.4,119.4c0,65.9-53.5,119.5-119.4,119.5h-15.9v57.4A47.5,47.5,0,0,1,1008,1170.8Z"/><path class="cls-7" d="M1059.3,830.3h-127a33.3,33.3,0,0,1,0-66.6h199.1a38.7,38.7,0,0,0,0-77.3h-96.9V639.7a38.7,38.7,0,1,0-77.3,0v46.7H932.3a110.6,110.6,0,1,0,0,221.2h127a33.4,33.4,0,0,1,0,66.7h-199a38.7,38.7,0,0,0,0,77.3h96.9v66.2a38.7,38.7,0,0,0,77.3,0v-66.2h24.8c60.9,0,110.6-49.6,110.6-110.7A110.8,110.8,0,0,0,1059.3,830.3Z"/><path class="cls-8" d="M1287.2,403.4h0a73.8,73.8,0,0,0,23.1-20.9c-31.7-48.1-54-116.3-102.6-132.1-16.8-5.4-34.9-3.6-53.7,1.9a74.1,74.1,0,0,0,1.6,70.9l30.7,53.2A73.9,73.9,0,0,0,1287.2,403.4Z"/><path class="cls-8" d="M1001.6,331.5a73.7,73.7,0,0,0,10.5-25,99.6,99.6,0,0,1-12.1.8c-59.4,0-127.6-59.1-184.6-60.1a73.6,73.6,0,0,0,32.7,72l51.3,33.6a73.8,73.8,0,0,0,102.2-21.3Z"/><path class="cls-8" d="M1554,709.6c-20.6-63.3,27.9-162.3-10.4-215-24.2-33.2-76-39.5-124.4-49.1a119.2,119.2,0,0,0-16.3,72.6l9.5,99.1A119.8,119.8,0,0,0,1543.1,725h0a138.6,138.6,0,0,0,16.1-2.7A91.7,91.7,0,0,1,1554,709.6Z"/><rect class="cls-9" height="208.28" rx="54.7" ry="54.7" transform="translate(700.9 -199.7) rotate(24.8)" width="109.3" x="749.6" y="1388.8"/><rect class="cls-9" height="208.28" rx="54.7" ry="54.7" transform="translate(-428.6 693.6) rotate(-24)" width="109.3" x="1361.6" y="1250.2"/></svg>